<mxfile host="app.diagrams.net" modified="2021-06-03T01:59:08.689Z" agent="5.0 (Windows NT 10.0; Win64; x64) AppleWebKit/537.36 (KHTML, like Gecko) Chrome/90.0.4430.212 Safari/537.36" etag="fkMyzTS9QpRYyP6c81KQ" version="14.7.3" type="github">
  <diagram id="GmSXDcrQk7MfSlUiDSau" name="Page-1">
    <mxGraphModel dx="3770" dy="2294" grid="1" gridSize="10" guides="1" tooltips="1" connect="1" arrows="1" fold="1" page="1" pageScale="1" pageWidth="850" pageHeight="1100" math="0" shadow="0">
      <root>
        <mxCell id="0" />
        <mxCell id="1" parent="0" />
        <mxCell id="UMu2huiDQ1umMnO6Gze_-2" value="" style="html=1;" parent="1" vertex="1">
          <mxGeometry x="70" y="-140" width="1220" height="950" as="geometry" />
        </mxCell>
        <mxCell id="UMu2huiDQ1umMnO6Gze_-64" style="edgeStyle=orthogonalEdgeStyle;rounded=0;orthogonalLoop=1;jettySize=auto;html=1;exitX=1;exitY=0.5;exitDx=0;exitDy=0;entryX=0.5;entryY=0;entryDx=0;entryDy=0;entryPerimeter=0;" parent="1" source="UMu2huiDQ1umMnO6Gze_-69" target="UMu2huiDQ1umMnO6Gze_-58" edge="1">
          <mxGeometry relative="1" as="geometry">
            <mxPoint x="550" y="70" as="sourcePoint" />
          </mxGeometry>
        </mxCell>
        <mxCell id="UMu2huiDQ1umMnO6Gze_-37" style="edgeStyle=orthogonalEdgeStyle;rounded=0;orthogonalLoop=1;jettySize=auto;html=1;exitX=1;exitY=0.5;exitDx=0;exitDy=0;entryX=0;entryY=1;entryDx=0;entryDy=0;" parent="1" source="UMu2huiDQ1umMnO6Gze_-78" target="UMu2huiDQ1umMnO6Gze_-90" edge="1">
          <mxGeometry relative="1" as="geometry">
            <mxPoint x="840.0000000000005" y="395" as="sourcePoint" />
            <mxPoint x="1018.5" y="270" as="targetPoint" />
          </mxGeometry>
        </mxCell>
        <mxCell id="UMu2huiDQ1umMnO6Gze_-65" style="edgeStyle=orthogonalEdgeStyle;rounded=0;orthogonalLoop=1;jettySize=auto;html=1;entryX=0.285;entryY=0.836;entryDx=0;entryDy=0;entryPerimeter=0;exitX=0.5;exitY=1;exitDx=0;exitDy=0;" parent="1" source="UMu2huiDQ1umMnO6Gze_-90" target="UMu2huiDQ1umMnO6Gze_-58" edge="1">
          <mxGeometry relative="1" as="geometry">
            <mxPoint x="1030" y="150" as="sourcePoint" />
            <Array as="points">
              <mxPoint x="1180" y="250" />
              <mxPoint x="1346" y="250" />
            </Array>
          </mxGeometry>
        </mxCell>
        <mxCell id="UMu2huiDQ1umMnO6Gze_-75" style="edgeStyle=orthogonalEdgeStyle;rounded=0;orthogonalLoop=1;jettySize=auto;html=1;exitX=0.5;exitY=0.5;exitDx=0;exitDy=0;exitPerimeter=0;entryX=0;entryY=0.5;entryDx=0;entryDy=0;" parent="1" source="UMu2huiDQ1umMnO6Gze_-57" target="UMu2huiDQ1umMnO6Gze_-69" edge="1">
          <mxGeometry relative="1" as="geometry" />
        </mxCell>
        <mxCell id="UMu2huiDQ1umMnO6Gze_-57" value="Radio Front End/user" style="shape=umlActor;verticalLabelPosition=bottom;verticalAlign=top;html=1;" parent="1" vertex="1">
          <mxGeometry x="-120" y="180" width="90" height="140" as="geometry" />
        </mxCell>
        <mxCell id="UMu2huiDQ1umMnO6Gze_-63" style="edgeStyle=orthogonalEdgeStyle;rounded=0;orthogonalLoop=1;jettySize=auto;html=1;exitX=0.5;exitY=0.5;exitDx=0;exitDy=0;exitPerimeter=0;entryX=1;entryY=1;entryDx=0;entryDy=0;" parent="1" source="UMu2huiDQ1umMnO6Gze_-58" target="UMu2huiDQ1umMnO6Gze_-90" edge="1">
          <mxGeometry relative="1" as="geometry">
            <mxPoint x="1050" y="135" as="targetPoint" />
          </mxGeometry>
        </mxCell>
        <mxCell id="UMu2huiDQ1umMnO6Gze_-66" style="edgeStyle=orthogonalEdgeStyle;rounded=0;orthogonalLoop=1;jettySize=auto;html=1;exitX=1;exitY=0.3333333333333333;exitDx=0;exitDy=0;exitPerimeter=0;entryX=1;entryY=0.5;entryDx=0;entryDy=0;" parent="1" source="UMu2huiDQ1umMnO6Gze_-58" target="UMu2huiDQ1umMnO6Gze_-91" edge="1">
          <mxGeometry relative="1" as="geometry">
            <mxPoint x="1130" y="482.5" as="targetPoint" />
            <Array as="points">
              <mxPoint x="1490" y="207" />
              <mxPoint x="1490" y="483" />
              <mxPoint x="420" y="483" />
            </Array>
          </mxGeometry>
        </mxCell>
        <mxCell id="UMu2huiDQ1umMnO6Gze_-58" value="Machine Learning System" style="shape=umlActor;verticalLabelPosition=bottom;verticalAlign=top;html=1;" parent="1" vertex="1">
          <mxGeometry x="1370" y="170" width="90" height="140" as="geometry" />
        </mxCell>
        <mxCell id="UMu2huiDQ1umMnO6Gze_-69" value="&lt;span&gt;Unidentified I/P Data vector passed&amp;nbsp; for identification&lt;/span&gt;" style="ellipse;whiteSpace=wrap;html=1;" parent="1" vertex="1">
          <mxGeometry x="230" y="-30" width="340" height="100" as="geometry" />
        </mxCell>
        <mxCell id="UMu2huiDQ1umMnO6Gze_-73" style="edgeStyle=orthogonalEdgeStyle;rounded=0;orthogonalLoop=1;jettySize=auto;html=1;exitX=0;exitY=0.5;exitDx=0;exitDy=0;entryX=0;entryY=0.3333333333333333;entryDx=0;entryDy=0;entryPerimeter=0;" parent="1" source="UMu2huiDQ1umMnO6Gze_-70" target="UMu2huiDQ1umMnO6Gze_-57" edge="1">
          <mxGeometry relative="1" as="geometry">
            <Array as="points">
              <mxPoint x="50" y="275" />
              <mxPoint x="50" y="430" />
              <mxPoint x="-140" y="430" />
              <mxPoint x="-140" y="227" />
            </Array>
          </mxGeometry>
        </mxCell>
        <mxCell id="UMu2huiDQ1umMnO6Gze_-81" style="edgeStyle=orthogonalEdgeStyle;rounded=0;orthogonalLoop=1;jettySize=auto;html=1;exitX=1;exitY=0.5;exitDx=0;exitDy=0;entryX=0;entryY=0.5;entryDx=0;entryDy=0;" parent="1" source="UMu2huiDQ1umMnO6Gze_-70" target="UMu2huiDQ1umMnO6Gze_-71" edge="1">
          <mxGeometry relative="1" as="geometry" />
        </mxCell>
        <mxCell id="UMu2huiDQ1umMnO6Gze_-82" style="edgeStyle=orthogonalEdgeStyle;rounded=0;orthogonalLoop=1;jettySize=auto;html=1;exitX=1;exitY=0.5;exitDx=0;exitDy=0;entryX=0;entryY=0.5;entryDx=0;entryDy=0;" parent="1" source="UMu2huiDQ1umMnO6Gze_-70" target="UMu2huiDQ1umMnO6Gze_-74" edge="1">
          <mxGeometry relative="1" as="geometry" />
        </mxCell>
        <mxCell id="UMu2huiDQ1umMnO6Gze_-70" value="Split Dataset&amp;nbsp;" style="ellipse;whiteSpace=wrap;html=1;" parent="1" vertex="1">
          <mxGeometry x="130" y="240" width="140" height="70" as="geometry" />
        </mxCell>
        <mxCell id="UMu2huiDQ1umMnO6Gze_-85" style="edgeStyle=orthogonalEdgeStyle;rounded=0;orthogonalLoop=1;jettySize=auto;html=1;exitX=1;exitY=0.5;exitDx=0;exitDy=0;entryX=0;entryY=0.5;entryDx=0;entryDy=0;" parent="1" source="UMu2huiDQ1umMnO6Gze_-71" target="UMu2huiDQ1umMnO6Gze_-76" edge="1">
          <mxGeometry relative="1" as="geometry" />
        </mxCell>
        <mxCell id="UMu2huiDQ1umMnO6Gze_-71" value="Generate Training Set&amp;nbsp;&amp;nbsp;" style="ellipse;whiteSpace=wrap;html=1;" parent="1" vertex="1">
          <mxGeometry x="310" y="130" width="140" height="70" as="geometry" />
        </mxCell>
        <mxCell id="UMu2huiDQ1umMnO6Gze_-83" style="edgeStyle=orthogonalEdgeStyle;rounded=0;orthogonalLoop=1;jettySize=auto;html=1;exitX=1;exitY=0.5;exitDx=0;exitDy=0;entryX=0;entryY=0.5;entryDx=0;entryDy=0;" parent="1" source="UMu2huiDQ1umMnO6Gze_-74" target="UMu2huiDQ1umMnO6Gze_-79" edge="1">
          <mxGeometry relative="1" as="geometry" />
        </mxCell>
        <mxCell id="UMu2huiDQ1umMnO6Gze_-74" value="Generate Test Set" style="ellipse;whiteSpace=wrap;html=1;" parent="1" vertex="1">
          <mxGeometry x="300" y="310" width="140" height="70" as="geometry" />
        </mxCell>
        <mxCell id="UMu2huiDQ1umMnO6Gze_-86" style="edgeStyle=orthogonalEdgeStyle;rounded=0;orthogonalLoop=1;jettySize=auto;html=1;exitX=1;exitY=0.5;exitDx=0;exitDy=0;entryX=0;entryY=0.5;entryDx=0;entryDy=0;" parent="1" source="UMu2huiDQ1umMnO6Gze_-76" target="UMu2huiDQ1umMnO6Gze_-77" edge="1">
          <mxGeometry relative="1" as="geometry" />
        </mxCell>
        <mxCell id="UMu2huiDQ1umMnO6Gze_-76" value="Data Preparation" style="ellipse;whiteSpace=wrap;html=1;" parent="1" vertex="1">
          <mxGeometry x="520" y="130" width="140" height="70" as="geometry" />
        </mxCell>
        <mxCell id="UMu2huiDQ1umMnO6Gze_-87" style="edgeStyle=orthogonalEdgeStyle;rounded=0;orthogonalLoop=1;jettySize=auto;html=1;exitX=1;exitY=0.5;exitDx=0;exitDy=0;entryX=0;entryY=0.5;entryDx=0;entryDy=0;" parent="1" source="UMu2huiDQ1umMnO6Gze_-77" target="UMu2huiDQ1umMnO6Gze_-80" edge="1">
          <mxGeometry relative="1" as="geometry" />
        </mxCell>
        <mxCell id="UMu2huiDQ1umMnO6Gze_-77" value="Preprocessing" style="ellipse;whiteSpace=wrap;html=1;" parent="1" vertex="1">
          <mxGeometry x="710" y="130" width="140" height="70" as="geometry" />
        </mxCell>
        <mxCell id="UMu2huiDQ1umMnO6Gze_-78" value="Preprocessing" style="ellipse;whiteSpace=wrap;html=1;" parent="1" vertex="1">
          <mxGeometry x="720" y="310" width="170" height="70" as="geometry" />
        </mxCell>
        <mxCell id="UMu2huiDQ1umMnO6Gze_-84" style="edgeStyle=orthogonalEdgeStyle;rounded=0;orthogonalLoop=1;jettySize=auto;html=1;exitX=1;exitY=0.5;exitDx=0;exitDy=0;entryX=0;entryY=0.5;entryDx=0;entryDy=0;" parent="1" source="UMu2huiDQ1umMnO6Gze_-79" target="UMu2huiDQ1umMnO6Gze_-78" edge="1">
          <mxGeometry relative="1" as="geometry" />
        </mxCell>
        <mxCell id="UMu2huiDQ1umMnO6Gze_-79" value="Data Preparation" style="ellipse;whiteSpace=wrap;html=1;" parent="1" vertex="1">
          <mxGeometry x="520" y="310" width="140" height="70" as="geometry" />
        </mxCell>
        <mxCell id="UMu2huiDQ1umMnO6Gze_-89" style="edgeStyle=orthogonalEdgeStyle;rounded=0;orthogonalLoop=1;jettySize=auto;html=1;exitX=1;exitY=0.5;exitDx=0;exitDy=0;entryX=0;entryY=0.5;entryDx=0;entryDy=0;" parent="1" source="UMu2huiDQ1umMnO6Gze_-80" target="UMu2huiDQ1umMnO6Gze_-90" edge="1">
          <mxGeometry relative="1" as="geometry">
            <mxPoint x="940" y="135" as="targetPoint" />
          </mxGeometry>
        </mxCell>
        <mxCell id="UMu2huiDQ1umMnO6Gze_-80" value="Build Network" style="ellipse;whiteSpace=wrap;html=1;" parent="1" vertex="1">
          <mxGeometry x="880" y="130" width="140" height="70" as="geometry" />
        </mxCell>
        <mxCell id="UMu2huiDQ1umMnO6Gze_-90" value="Train Network" style="ellipse;whiteSpace=wrap;html=1;" parent="1" vertex="1">
          <mxGeometry x="1110" y="120" width="140" height="70" as="geometry" />
        </mxCell>
        <mxCell id="UMu2huiDQ1umMnO6Gze_-91" value="Output Modulation Type&amp;nbsp;&lt;br&gt;Probability" style="ellipse;whiteSpace=wrap;html=1;" parent="1" vertex="1">
          <mxGeometry x="130" y="410" width="260" height="110" as="geometry" />
        </mxCell>
      </root>
    </mxGraphModel>
  </diagram>
</mxfile>
